# xmcd
#
# Track frame offsets:
# 150
# 9775
# 20377
# 37182
# 51625
# 64965
# 75655
# 91892
# 105110
# 117780
# 131892
# 142717
# 155325
# 171567
# 188495
# 201292
# 219592
# 235387
# 248575
# 257387
#
# Disc length: 3915 seconds
#
#
# Revision: 2
# Processed by: cddbd v1.5.1PL2 Copyright (c) Steve Scherf et al.
# Submitted via: FreeRIP 2.942 
#
DISCID=080f4914
DTITLE=The 101ers - Elgin Avenue Breakdown - Revisited
DYEAR=1975
DGENRE=Punk Rock
TTITLE0=Letsagetabitarockin'
TTITLE1=Silent Telephone
TTITLE2=Keys to Your Heart (V.1)
TTITLE3=Rabies (from the dogs of love)
TTITLE4=Sweet Revenge
TTITLE5=Motor Boys Motor
TTITLE6=Steamgauge 99
TTITLE7=5 Star R'n'R
TTITLE8=Surf City
TTITLE9=Keys to Your Heart (V.2)
TTITLE10=Sweety of the St. Moritz
TTITLE11=Hideaway
TTITLE12=Shake Your Hips
TTITLE13=Lonely Mother's Son
TTITLE14=Don't Let It Go
TTITLE15=Keep Taking the Tablets
TTITLE16=Junco Partner
TTITLE17=Out of Time
TTITLE18=Maybelline
TTITLE19=Gloria
EXTD=
EXTT0=
EXTT1=
EXTT2=
EXTT3=
EXTT4=
EXTT5=
EXTT6=
EXTT7=
EXTT8=
EXTT9=
EXTT10=
EXTT11=
EXTT12=
EXTT13=
EXTT14=
EXTT15=
EXTT16=
EXTT17=
EXTT18=
EXTT19=
PLAYORDER=
